<svg xmlns="http://www.w3.org/2000/svg" viewBox="0 0 1100 720" role="img" aria-label="Case study board placeholder">
  <rect width="1100" height="720" fill="#f7f4ed"/>
  <rect x="42" y="42" width="1016" height="636" rx="18" fill="#161615"/>
  <g fill="#f7f4ed" opacity=".18">
    <path d="M120 120h860v2H120zM120 240h860v2H120zM120 360h860v2H120zM120 480h860v2H120zM120 600h860v2H120z"/>
    <path d="M260 90v540h2V90zM420 90v540h2V90zM580 90v540h2V90zM740 90v540h2V90zM900 90v540h2V90z"/>
  </g>
  <rect x="112" y="112" width="274" height="372" rx="12" fill="#d7ff35"/>
  <rect x="418" y="112" width="274" height="190" rx="12" fill="#66d9e8"/>
  <rect x="724" y="112" width="274" height="372" rx="12" fill="#ff6f61"/>
  <rect x="418" y="334" width="274" height="150" rx="12" fill="#f7f4ed"/>
  <path d="M158 548h782" stroke="#f7f4ed" stroke-width="34" stroke-linecap="round"/>
  <text x="134" y="202" fill="#161615" font-family="Arial, sans-serif" font-size="46" font-weight="900">PROMPT</text>
  <text x="446" y="202" fill="#161615" font-family="Arial, sans-serif" font-size="46" font-weight="900">AI</text>
  <text x="750" y="202" fill="#161615" font-family="Arial, sans-serif" font-size="46" font-weight="900">LAYOUT</text>
  <text x="448" y="426" fill="#161615" font-family="Arial, sans-serif" font-size="34" font-weight="900">RETOUCH</text>
</svg>
