<svg xmlns="http://www.w3.org/2000/svg" viewBox="0 0 900 1125" role="img" aria-label="Portfolio visual placeholder">
  <defs>
    <linearGradient id="g" x1="0" x2="1" y1="0" y2="1">
      <stop offset="0" stop-color="#d7ff35"/>
      <stop offset=".48" stop-color="#66d9e8"/>
      <stop offset="1" stop-color="#ff6f61"/>
    </linearGradient>
    <filter id="shadow" x="-20%" y="-20%" width="140%" height="140%">
      <feDropShadow dx="0" dy="28" stdDeviation="30" flood-color="#161615" flood-opacity=".24"/>
    </filter>
  </defs>
  <rect width="900" height="1125" fill="#f7f4ed"/>
  <path d="M0 0h900v1125H0z" fill="url(#g)" opacity=".32"/>
  <g stroke="#161615" stroke-width="3" opacity=".2">
    <path d="M0 180h900M0 360h900M0 540h900M0 720h900M0 900h900"/>
    <path d="M180 0v1125M360 0v1125M540 0v1125M720 0v1125"/>
  </g>
  <g filter="url(#shadow)">
    <rect x="108" y="132" width="360" height="520" rx="10" fill="#161615"/>
    <rect x="168" y="210" width="244" height="244" rx="122" fill="#d7ff35"/>
    <path d="M132 534h304v38H132zM132 592h220v24H132z" fill="#f7f4ed"/>
  </g>
  <g filter="url(#shadow)">
    <rect x="410" y="430" width="340" height="430" rx="10" fill="#fff"/>
    <path d="M462 516c62-88 180-86 238-2 58 86-2 208-112 208-114 0-190-112-126-206z" fill="#5b4bff"/>
    <circle cx="598" cy="598" r="76" fill="#ff6f61" opacity=".9"/>
    <path d="M462 790h232" stroke="#161615" stroke-width="20" stroke-linecap="round"/>
  </g>
  <g fill="#161615">
    <text x="72" y="998" font-family="Arial, sans-serif" font-size="62" font-weight="900">PORTFOLIO</text>
    <text x="78" y="1054" font-family="Arial, sans-serif" font-size="24" font-weight="700">AIGC / POSTER / TYPE / VI / 3D</text>
  </g>
</svg>
